<svg id="Capa_1" data-name="Capa 1" xmlns="http://www.w3.org/2000/svg" viewBox="0 0 252 224.42"><defs><style>.cls-1{fill:#61dafb;}</style></defs><title>react</title><path class="cls-1" d="M254,121.21c0-16.7-20.91-32.52-53-42.33,7.4-32.67,4.11-58.66-10.37-67A22.57,22.57,0,0,0,179.16,9V20.48A12,12,0,0,1,185,21.81c7,4,10,19.27,7.65,38.89-.57,4.83-1.49,9.91-2.62,15.1a247.76,247.76,0,0,0-32.62-5.6,249.21,249.21,0,0,0-21.37-25.68C152.81,29,168.53,20.43,179.21,20.43V9C165.09,9,146.59,19,127.9,36.5,109.2,19.14,90.71,9.18,76.58,9.18V20.63c10.64,0,26.4,8.48,43.15,23.94A242.71,242.71,0,0,0,98.52,70.2a239,239,0,0,0-32.67,5.65c-1.18-5.14-2.06-10.12-2.67-14.9-2.42-19.62.56-34.87,7.5-38.93a11.36,11.36,0,0,1,5.9-1.34V9.23A22.84,22.84,0,0,0,65,12.11C50.54,20.43,47.3,46.37,54.75,78.93,22.8,88.79,2,104.56,2,121.21s20.91,32.51,53,42.32c-7.4,32.67-4.11,58.66,10.37,67a22.63,22.63,0,0,0,11.56,2.88c14.13,0,32.62-10.07,51.32-27.53,18.69,17.36,37.18,27.32,51.31,27.32a22.94,22.94,0,0,0,11.61-2.87c14.43-8.32,17.67-34.26,10.22-66.83C233.2,153.67,254,137.85,254,121.21ZM187.12,87c-1.9,6.62-4.26,13.45-6.93,20.28-2.11-4.1-4.32-8.21-6.73-12.32s-4.88-8.12-7.4-12c7.3,1.08,14.33,2.41,21.06,4.06Zm-23.52,54.7c-4,6.93-8.12,13.51-12.38,19.62-7.66.67-15.41,1-23.22,1s-15.51-.36-23.11-1q-6.4-9.16-12.44-19.52c-3.9-6.73-7.44-13.56-10.68-20.44,3.19-6.88,6.78-13.77,10.63-20.49,4-6.94,8.12-13.51,12.38-19.63,7.66-.66,15.41-1,23.22-1s15.51.36,23.11,1c4.27,6.11,8.43,12.64,12.44,19.52s7.44,13.56,10.68,20.44c-3.24,6.89-6.78,13.77-10.63,20.5ZM180.19,135c2.77,6.89,5.13,13.77,7.09,20.45-6.73,1.64-13.82,3-21.17,4.1,2.52-4,5-8,7.4-12.17s4.57-8.27,6.68-12.38ZM128.1,189.78a214,214,0,0,1-14.28-16.44c4.63.21,9.35.36,14.13.36s9.6-.1,14.28-.36A199,199,0,0,1,128.1,189.78ZM89.89,159.52q-11-1.61-21.06-4.05c1.9-6.63,4.26-13.46,6.93-20.29,2.11,4.11,4.32,8.22,6.73,12.33S87.37,155.62,89.89,159.52Zm38-106.89a214,214,0,0,1,14.28,16.44c-4.63-.21-9.35-.36-14.13-.36s-9.61.1-14.28.36A199,199,0,0,1,127.85,52.63Zm-38,30.26c-2.52,4-5,8-7.4,12.17s-4.57,8.22-6.68,12.33C73,100.51,70.62,93.62,68.67,87c6.73-1.6,13.82-3,21.17-4.06ZM43.35,147.2c-18.18-7.76-29.95-17.93-29.95-26s11.77-18.29,30-26c4.42-1.91,9.25-3.6,14.23-5.19a248.72,248.72,0,0,0,11.55,31.28,244.18,244.18,0,0,0-11.4,31.13c-5.08-1.6-9.91-3.34-14.38-5.24ZM71,220.6c-7-4-10-19.26-7.65-38.89.57-4.82,1.49-9.91,2.62-15.1a247.76,247.76,0,0,0,32.62,5.6,249.21,249.21,0,0,0,21.37,25.68C103.19,213.46,87.47,222,76.79,222A12.46,12.46,0,0,1,71,220.6Zm121.84-39.14c2.42,19.62-.56,34.88-7.5,38.93a11.36,11.36,0,0,1-5.9,1.34c-10.64,0-26.4-8.48-43.15-23.94a242.71,242.71,0,0,0,21.21-25.63,239,239,0,0,0,32.67-5.65A142.84,142.84,0,0,1,192.82,181.46ZM212.6,147.2c-4.42,1.9-9.25,3.59-14.23,5.19a246.83,246.83,0,0,0-11.56-31.29A243.21,243.21,0,0,0,198.22,90c5.08,1.59,9.91,3.33,14.43,5.24,18.18,7.75,29.95,17.92,29.95,26s-11.82,18.28-30,26Z" transform="translate(-2 -8.97)"/><circle class="cls-1" cx="125.95" cy="112.23" r="23.47"/><path class="cls-1" d="M179.11,9" transform="translate(-2 -8.97)"/></svg>